<svg xmlns="http://www.w3.org/2000/svg" viewBox="0 0 407.53 111.96"><defs><style>.cls-1{font-size:95px;fill:#3c3837;font-family:EtherCutePoison, Ether Cute Poison;}.cls-2{letter-spacing:-0.02em;}.cls-3{fill:#a3195b;}.cls-4{fill:#905584;}.cls-5{fill:#fff;}</style></defs><g id="Capa_2" data-name="Capa 2"><g id="Capa_1-2" data-name="Capa 1"><text class="cls-1" transform="translate(67.54 78.8)">An<tspan class="cls-2" x="93.48" y="0">a</tspan><tspan x="135.09" y="0">ru R</tspan></text><path class="cls-3" d="M210.53,26c-1.36-2.88-9.85-1.53-9.85-1.52s-8.5-1.36-9.85,1.52,6.45,10.54,9.85,10.54h0C204.08,36.5,211.89,28.85,210.53,26Z"/><path class="cls-4" d="M91.38,15.74C94.89,14.35,72,3.08,64.19,4.47s8,32,8.94,29.84C73.85,32.58,78.46,20.87,91.38,15.74Z"/><path class="cls-5" d="M75.37,21.31c.14-.16.28-.31.43-.46a9.19,9.19,0,0,1,1-.78A12.9,12.9,0,0,1,79,18.92c.77-.32,1.55-.59,2.32-.84l.78-.27-.46-.14-1-.36-.49-.2c-.16-.07-.33-.14-.5-.23l-.48-.25L79,16.5l-.13-.08-.12-.08a6.45,6.45,0,0,1-.9-.68,2.12,2.12,0,0,1-.45-.58A.92.92,0,0,1,77.47,14a1.16,1.16,0,0,1,.24-.19,1.83,1.83,0,0,1,.73-.22,3.79,3.79,0,0,1,.58,0,9.63,9.63,0,0,1,1.08.07c.35,0,.69.09,1,.15.68.14,1.36.28,2,.47a18.87,18.87,0,0,1,2,.64,10.14,10.14,0,0,1,1,.39,7.27,7.27,0,0,1,.91.5c-.33-.11-.66-.17-1-.25l-1-.19q-1-.17-2-.3c-.67-.08-1.34-.18-2-.23a16.34,16.34,0,0,0-2-.07l-.28,0a6.62,6.62,0,0,0,.64.47l.11.06.09.06.22.13.41.22.43.21.45.19c.3.13.62.25.93.37l1.91.75,1.32.54-1.3.49a21.5,21.5,0,0,1-2.41.69c-.78.2-1.57.39-2.34.62a14.08,14.08,0,0,0-2.24.84l-.53.27-.51.32a5.46,5.46,0,0,0-.48.36c-.16.13-.31.27-.46.41C75.12,21.63,75.24,21.46,75.37,21.31Z"/><path class="cls-4" d="M328.9,14.45C325.28,13.36,347.14.14,355,.85s-5.23,32.55-6.31,30.51C347.83,29.7,342.22,18.43,328.9,14.45Z"/><path class="cls-5" d="M345.34,18.6a4.69,4.69,0,0,0-.47-.42,6.7,6.7,0,0,0-1-.69,12.12,12.12,0,0,0-2.3-.95c-.79-.25-1.59-.46-2.38-.65l-.8-.19.44-.19.95-.43.47-.25q.24-.12.48-.27c.16-.1.33-.2.46-.3l.21-.14.12-.09.1-.09a5.8,5.8,0,0,0,.84-.75,2,2,0,0,0,.4-.62.92.92,0,0,0,0-.69.86.86,0,0,0-.23-.35,1.15,1.15,0,0,0-.26-.17,1.73,1.73,0,0,0-.74-.15,5.52,5.52,0,0,0-.58,0c-.37,0-.72.1-1.07.17s-.68.15-1,.24c-.67.2-1.33.39-2,.64s-1.29.51-1.91.81a10,10,0,0,0-.92.48,5,5,0,0,0-.86.58,8.43,8.43,0,0,1,1-.34l1-.28c.66-.17,1.32-.33,2-.47s1.31-.3,2-.4a15.17,15.17,0,0,1,1.94-.25h.28a6.14,6.14,0,0,1-.59.53l-.1.07-.09.06-.2.15-.4.26-.41.24-.43.23-.9.45-1.83.91-1.27.65,1.34.38a23,23,0,0,0,2.45.48c.81.13,1.6.25,2.39.41a15.51,15.51,0,0,1,2.31.64l.55.23a5.28,5.28,0,0,1,.53.27c.18.1.35.21.52.32s.33.24.49.37A6.1,6.1,0,0,0,345.34,18.6Z"/><path class="cls-4" d="M55,50.26l-1.84.1c-1.16.07-2.84.1-4.84.14s-4.35,0-6.85.06c-1.25,0-2.54,0-3.85.08s-2.65.12-4,.19-2.66.23-4,.34-2.59.28-3.84.42l-6.78.87c-2,.26-3.65.43-4.81.55s-1.83.18-1.83.18.65-.15,1.8-.38S17,52.26,19,51.92l3.19-.57,3.59-.53c1.24-.15,2.52-.32,3.83-.46s2.66-.23,4-.3,2.68-.14,4-.14l2,0,1.91,0c2.51,0,4.85.12,6.85.18s3.67.13,4.84.13Z"/><path class="cls-4" d="M51.23,55l-1.61.48c-.52.13-1.14.34-1.84.58s-1.5.51-2.37.81c-1.74.59-3.74,1.36-5.9,2.13l-3.36,1.14c-1.16.36-2.32.75-3.53,1s-2.41.52-3.57.81-2.31.56-3.42.86c-2.2.61-4.27,1.17-6.07,1.59a28.24,28.24,0,0,1-4.42.64c-.53,0-1,0-1.24,0l-.44,0s.61-.07,1.67-.23a37.25,37.25,0,0,0,4.31-1c1.76-.47,3.78-1.21,6-1.82,1.1-.32,2.26-.63,3.43-.92s2.38-.54,3.56-.84,2.34-.63,3.49-1l3.36-1.09c1.09-.37,2.15-.69,3.16-1l2.83-.88c.88-.28,1.7-.48,2.43-.66s1.35-.35,1.88-.45Z"/><path class="cls-4" d="M55.47,47.22l-2.36-.38-2.72-.43-1.67-.26-1.86-.24-4.18-.51c-1.48-.19-3.06-.3-4.68-.47s-3.3-.32-5-.42l-5.18-.36c-3.47-.16-6.95-.35-10.21-.45l-8.91-.46C3.48,43,0,42.67,0,42.67v-.09l2.4,0H5.15c1.06,0,2.26,0,3.57,0l4.21.09c1.5,0,3.08.11,4.71.16s3.32.16,5,.29l5.19.36,5.18.46c1.71.13,3.39.34,5,.51s3.2.33,4.68.56l4.18.62,1.85.27,1.67.31,2.7.49,2.35.44Z"/><path class="cls-4" d="M352.65,53.7l2.28-.32c.73-.12,1.62-.16,2.64-.23.52,0,1.06-.08,1.64-.1H361c1.26,0,2.62,0,4.07.06s3,.12,4.53.23,3.19.19,4.84.27c.82,0,1.65,0,2.48.08s1.66,0,2.5,0l9.85,0c1.57,0,3.09,0,4.53,0l4.06,0c2.51,0,4.61,0,6.08,0l2.31,0-2.31.14c-1.47.07-3.56.21-6.08.31l-4.06.18c-1.44.08-3,.1-4.53.11l-9.85.07c-.84,0-1.69,0-2.52-.05s-1.68,0-2.5-.11c-1.66-.1-3.28-.21-4.85-.33l-4.51-.34c-1.44-.08-2.79-.19-4.05-.2s-2.4-.07-3.42,0-1.91,0-2.64.08Z"/><path class="cls-4" d="M360.63,58.52l1.58.27c1,.19,2.45.42,4.17.76s3.72.71,5.86,1.17L379,62.14l3.39.79c1.12.29,2.23.56,3.28.87,2.12.6,4,1.27,5.73,1.69.85.21,1.62.42,2.31.54a14.76,14.76,0,0,0,1.82.31l1.59.22-1.61-.06a18.11,18.11,0,0,1-1.84-.16,20.07,20.07,0,0,1-2.37-.39c-.87-.17-1.79-.41-2.77-.65l-3.05-.8c-1.05-.3-2.15-.54-3.25-.82L378.78,63l-6.68-1.53c-2.13-.49-4.11-1-5.82-1.41s-3.11-.81-4.1-1.06Z"/><path class="cls-4" d="M371.22,44.72c-1.54.55-3,1-4.43,1.59l-3.93,1.51-1.75.68-1.55.66L357,50.24l-2.2.94,0-.08,2.18-1L359.48,49l1.53-.7,1.74-.72,3.9-1.61c1.38-.58,2.88-1.09,4.4-1.67s3.11-1.18,4.74-1.72l4.92-1.7,4.94-1.61c1.63-.54,3.25-1,4.81-1.5s3.08-.92,4.53-1.31l4.07-1.1c1.26-.34,2.42-.63,3.45-.89s1.93-.49,2.67-.66l2.33-.56,0,.08s-3.3,1.12-8.29,2.66l-8.53,2.61c-3.14.9-6.47,1.92-9.8,2.92L376,43.09"/></g></g></svg>